<svg width="100" height="39" viewBox="0 0 100 39" fill="none" xmlns="http://www.w3.org/2000/svg">
<g clip-path="url(#clip0_80_420)">
<path d="M84.99 0L70.6783 38.9234H64.1188L49.8071 0H56.204L67.5341 31.9844L79.0268 0H84.99Z" fill="#292524"/>
<path d="M29.9244 38.9234L26.4007 29.2739H9.59532L6.0174 38.9234H0L14.908 0H21.4675L36.267 38.9234H29.9244ZM18.0522 6.5053L11.3843 24.4491H24.6117L18.0522 6.5053Z" fill="#292524"/>
<path fill-rule="evenodd" clip-rule="evenodd" d="M88.0735 19.4369H94.0366V38.9234H99.9998V19.4369H94.0366L94.0367 0H88.0735V19.4369Z" fill="#292524"/>
<path fill-rule="evenodd" clip-rule="evenodd" d="M37.0515 19.4369H43.0147V0H37.0515V19.4369ZM43.0147 38.9234V19.4369H48.9779V38.9234H43.0147Z" fill="#292524"/>
</g>
<defs>
<clipPath id="clip0_80_420">
<rect width="100" height="39" fill="white"/>
</clipPath>
</defs>
</svg>
