<svg width="80" height="80" viewBox="0 0 80 80" fill="none" xmlns="http://www.w3.org/2000/svg">
<path d="M17.5 62C17.5 63.3807 18.6193 64.5 20 64.5C21.3807 64.5 22.5 63.3807 22.5 62L17.5 62ZM21.7678 17.2322C20.7915 16.2559 19.2085 16.2559 18.2322 17.2322L2.32233 33.1421C1.34602 34.1184 1.34602 35.7014 2.32233 36.6777C3.29864 37.654 4.88155 37.654 5.85787 36.6777L20 22.5355L34.1421 36.6777C35.1184 37.654 36.7014 37.654 37.6777 36.6777C38.654 35.7014 38.654 34.1184 37.6777 33.1421L21.7678 17.2322ZM22.5 62L22.5 19L17.5 19L17.5 62L22.5 62Z" fill="#0A3231"/>
<path d="M63.5 19C63.5 17.6193 62.3807 16.5 61 16.5C59.6193 16.5 58.5 17.6193 58.5 19L63.5 19ZM59.2322 63.7678C60.2085 64.7441 61.7915 64.7441 62.7678 63.7678L78.6777 47.8579C79.654 46.8816 79.654 45.2986 78.6777 44.3223C77.7014 43.346 76.1184 43.346 75.1421 44.3223L61 58.4645L46.8579 44.3223C45.8816 43.346 44.2986 43.346 43.3223 44.3223C42.346 45.2986 42.346 46.8816 43.3223 47.8579L59.2322 63.7678ZM58.5 19L58.5 62L63.5 62L63.5 19L58.5 19Z" fill="#1D6D67"/>
</svg>
