<svg width="65" height="24" viewBox="0 0 65 24" fill="none" xmlns="http://www.w3.org/2000/svg">
<path d="M64.2717 15.6099C64.4799 15.9141 64.5839 16.2424 64.5839 16.5946C64.5839 17.0589 64.3838 17.4512 63.9835 17.7714C63.5832 18.0916 63.0469 18.2517 62.3744 18.2517C61.6059 18.2517 61.0055 18.0036 60.5732 17.5072C60.1409 16.9949 59.8928 16.1703 59.8287 15.0335C59.3804 16.0102 58.756 16.7947 57.9554 17.3871C57.1549 17.9635 56.2263 18.2517 55.1696 18.2517C54.2249 18.2517 53.4644 18.0036 52.888 17.5072C52.3116 17.0109 52.0234 16.3144 52.0234 15.4178C52.0234 14.3931 52.4157 13.5525 53.2002 12.8961C53.9848 12.2397 54.9774 11.7353 56.1782 11.3831C57.2189 11.0949 58.3637 10.9348 59.6126 10.9028V10.3023C59.6126 8.94143 59.4525 7.94075 59.1322 7.30032C58.812 6.65989 58.2597 6.33967 57.4751 6.33967C56.9628 6.33967 56.5465 6.49178 56.2263 6.79598C55.9061 7.08418 55.746 7.53248 55.746 8.14089C55.746 8.98946 56.0341 9.58186 56.6105 9.91809C56.4344 10.0942 56.1943 10.2303 55.8901 10.3264C55.6019 10.4224 55.2896 10.4705 54.9534 10.4705C54.2169 10.4705 53.6325 10.2623 53.2002 9.84604C52.784 9.42976 52.5758 8.9014 52.5758 8.26097C52.5758 7.31633 53.0321 6.58784 53.9447 6.07549C54.8574 5.54714 56.0982 5.28296 57.6673 5.28296C59.4445 5.28296 60.7413 5.69124 61.5579 6.50779C62.3904 7.32434 62.8067 8.65324 62.8067 10.4945V14.6733C62.8067 15.5219 63.0709 15.9462 63.5993 15.9462C63.7113 15.9462 63.8314 15.9221 63.9595 15.8741C64.0876 15.8101 64.1917 15.722 64.2717 15.6099ZM56.6105 16.2344C57.0749 16.2344 57.5472 16.0422 58.0275 15.658C58.5078 15.2737 58.9081 14.7534 59.2283 14.0969C59.5485 13.4245 59.7086 12.696 59.7086 11.9114C58.4438 11.9114 57.4991 12.0876 56.8747 12.4398C56.4264 12.6639 56.0662 12.9682 55.794 13.3524C55.5378 13.7367 55.4097 14.177 55.4097 14.6733C55.4097 15.1056 55.5058 15.4738 55.6979 15.778C55.9061 16.0823 56.2103 16.2344 56.6105 16.2344Z" fill="#1E1E1E"/>
<path d="M49.8467 16.7627C49.8467 19.1003 49.2944 20.7894 48.1896 21.8301C47.0849 22.8868 45.5718 23.4152 43.6505 23.4152C40.6245 23.4152 39.1115 22.5746 39.1115 20.8935C39.1115 20.3812 39.3036 19.9569 39.6879 19.6206C40.0881 19.3004 40.6085 19.1403 41.2489 19.1403C41.9214 19.1403 42.3937 19.3164 42.6659 19.6687C42.4417 19.8288 42.2736 20.0129 42.1615 20.221C42.0495 20.4452 41.9934 20.6613 41.9934 20.8695C41.9934 21.3498 42.1455 21.7341 42.4497 22.0223C42.7539 22.3105 43.1782 22.4546 43.7226 22.4546C44.7633 22.4546 45.5558 21.9822 46.1002 21.0376C46.6606 20.109 46.9408 18.8281 46.9408 17.195C46.9408 16.8748 47.0048 16.2183 47.1329 15.2257C46.4764 17.195 45.1475 18.1797 43.1462 18.1797C41.8653 18.1797 40.9207 17.8034 40.3123 17.0509C39.7039 16.2984 39.3997 15.0576 39.3997 13.3284V9.02949C39.3997 7.81267 39.2476 6.79598 38.9434 5.97943C39.5037 5.51512 40.0961 5.28296 40.7206 5.28296C41.2489 5.28296 41.6732 5.42706 41.9934 5.71525C42.3296 6.00345 42.4978 6.40372 42.4978 6.91606L42.5218 12.8481C42.5218 14.193 42.6339 15.1776 42.858 15.8021C43.0982 16.4105 43.5385 16.7147 44.1789 16.7147C44.9634 16.7147 45.5878 16.2504 46.0522 15.3217C46.5325 14.3771 46.7726 13.0162 46.7726 11.239C46.7726 9.4938 46.7486 8.32501 46.7006 7.73261C46.6526 7.14021 46.5005 6.54781 46.2443 5.95541C46.4204 5.79531 46.6606 5.6432 46.9648 5.49911C47.285 5.35501 47.6372 5.28296 48.0215 5.28296C48.5338 5.28296 48.9581 5.44307 49.2944 5.76328C49.6466 6.0835 49.8227 6.51579 49.8227 7.06016L49.8467 16.7627Z" fill="#1E1E1E"/>
<path d="M36.2796 14.6253C36.3277 15.9542 36.4878 16.9628 36.76 17.6513C36.2316 18.1156 35.6312 18.3478 34.9588 18.3478C34.4464 18.3478 34.0221 18.2037 33.6859 17.9155C33.3497 17.6273 33.1816 17.235 33.1816 16.7387V10.6146C33.1655 9.31768 33.0295 8.36504 32.7733 7.75663C32.5171 7.14822 32.0448 6.84401 31.3563 6.84401C30.5878 6.84401 29.9634 7.31633 29.4831 8.26097C29.0027 9.1896 28.7626 10.5505 28.7626 12.3437C28.7626 14.1049 28.7866 15.2897 28.8346 15.8981C28.8827 16.4905 29.0267 17.0829 29.2669 17.6753C29.1068 17.8354 28.8666 17.9875 28.5464 18.1316C28.2422 18.2757 27.898 18.3478 27.5137 18.3478C26.9694 18.3478 26.5291 18.1877 26.1928 17.8675C25.8566 17.5472 25.6885 17.123 25.6885 16.5946V8.88539C25.6725 8.43709 25.6164 8.11687 25.5204 7.92474C25.4243 7.7166 25.2642 7.61253 25.0401 7.61253C24.7359 7.61253 24.5277 7.7086 24.4156 7.90073C24.2235 7.58051 24.1274 7.25229 24.1274 6.91606C24.1274 6.43574 24.2875 6.05148 24.6078 5.76328C24.944 5.45908 25.4083 5.30698 26.0007 5.30698C26.7372 5.30698 27.3136 5.54714 27.7299 6.02746C28.1622 6.49178 28.3863 7.19625 28.4023 8.14089C29.0908 6.2356 30.4277 5.28296 32.413 5.28296C33.7259 5.28296 34.6946 5.69124 35.319 6.50779C35.9594 7.30833 36.2796 8.51714 36.2796 10.1342V14.6253Z" fill="#1E1E1E"/>
<path d="M22.3404 14.5532C22.5966 14.6653 22.7247 14.8814 22.7247 15.2017C22.7247 15.4098 22.6686 15.65 22.5566 15.9221C22.2524 16.6907 21.7 17.2911 20.8995 17.7234C20.0989 18.1396 19.1303 18.3478 17.9935 18.3478C16.1362 18.3478 14.6632 17.7794 13.5745 16.6426C12.4858 15.4899 11.9414 13.8728 11.9414 11.7914C11.9414 9.75798 12.4698 8.16491 13.5265 7.01213C14.5832 5.85935 16.0882 5.28296 18.0415 5.28296C19.4665 5.28296 20.6353 5.60318 21.5479 6.24361C22.4605 6.86803 22.9168 7.75663 22.9168 8.90941C22.9168 10.0782 22.4445 10.9828 21.4999 11.6232C20.5552 12.2637 19.2904 12.5839 17.7053 12.5839C16.6806 12.5839 15.8881 12.5519 15.3277 12.4878C15.4398 13.8808 15.792 14.8814 16.3844 15.4899C16.9928 16.0983 17.8254 16.4025 18.8821 16.4025C19.7307 16.4025 20.4512 16.2344 21.0436 15.8981C21.636 15.5619 22.0682 15.1136 22.3404 14.5532ZM17.9214 6.36369C17.0889 6.36369 16.4404 6.81199 15.9761 7.7086C15.5118 8.58919 15.2797 9.81402 15.2797 11.3831V11.4071L16.0962 11.4311C17.0889 11.4311 17.9134 11.223 18.5699 10.8067C19.2423 10.3904 19.5786 9.58987 19.5786 8.40507C19.5786 7.04415 19.0262 6.36369 17.9214 6.36369Z" fill="#1E1E1E"/>
<path d="M4.18642 16.3303C5.22712 16.3143 6.30785 16.1782 7.4286 15.9221C8.56537 15.6659 9.46198 15.3617 10.1184 15.0094C10.3106 15.1375 10.4546 15.3537 10.5507 15.6579C10.6628 15.9621 10.7188 16.2823 10.7188 16.6185C10.7188 17.0028 10.6468 17.331 10.5027 17.6032C10.3746 17.8754 10.1825 18.0115 9.92629 18.0115H2.84151C2.31315 18.0115 1.88086 17.8674 1.54463 17.5792C1.20841 17.291 1.04029 16.8987 1.04029 16.4024V4.68248C1.04029 3.46565 0.88819 2.45697 0.583984 1.65643C0.760103 1.48031 1.00027 1.3202 1.30447 1.17611C1.62469 1.03201 1.98493 0.959961 2.3852 0.959961C2.91356 0.959961 3.33784 1.10406 3.65806 1.39225C3.99429 1.68045 4.1624 2.07271 4.1624 2.56905L4.18642 16.3303Z" fill="#1E1E1E"/>
</svg>
