<svg width="80" height="80" viewBox="0 0 80 80" fill="none" xmlns="http://www.w3.org/2000/svg">
<path d="M33.5686 74C32.7169 74 31.9971 73.3833 31.7909 72.5571C31.1335 69.9238 29.8751 67.1234 28.0156 64.1563C25.8125 60.5937 22.6719 57.2892 18.5938 54.2422C15.0468 51.5614 11.4999 49.7332 7.95297 48.758C7.11291 48.5271 6.5 47.7822 6.5 46.911C6.5 46.0568 7.08934 45.3205 7.91068 45.0859C11.3882 44.093 14.7383 42.481 17.9609 40.25C21.6641 37.6719 24.7578 34.5781 27.2422 30.9688C29.44 27.7535 30.9487 24.5735 31.7683 21.4289C31.983 20.6051 32.7083 20 33.5597 20C34.4204 20 35.1508 20.6185 35.3603 21.4535C35.8333 23.3387 36.5726 25.2682 37.5781 27.2422C38.8438 29.6797 40.4609 32.0234 42.4297 34.2734C44.4453 36.4766 46.6954 38.4688 49.1797 40.25C52.4262 42.5512 55.7264 44.168 59.0809 45.1003C59.9038 45.3289 60.5 46.0616 60.5 46.9156C60.5 47.7825 59.8858 48.5212 59.0498 48.7504C56.9236 49.3333 54.735 50.2735 52.4845 51.5703C49.7656 53.1641 47.2344 55.0625 44.8905 57.2657C42.5469 59.4219 40.625 61.6953 39.1249 64.0859C37.2619 67.0591 36.0021 69.8812 35.346 72.5525C35.1424 73.3812 34.4215 74 33.5686 74Z" fill="#0A3231"/>
<path d="M60.5356 34C60.094 34 59.7207 33.6802 59.6138 33.2518C59.2729 31.8864 58.6204 30.4343 57.6562 28.8959C56.5139 27.0486 54.8854 25.3351 52.7708 23.7552C50.9317 22.3652 49.0925 21.4172 47.2534 20.9115C46.8178 20.7918 46.5 20.4056 46.5 19.9538C46.5 19.5109 46.8056 19.1291 47.2315 19.0075C49.0346 18.4927 50.7717 17.6568 52.4427 16.5C54.3628 15.1632 55.967 13.559 57.2552 11.6875C58.3948 10.0203 59.1771 8.37143 59.6021 6.74089C59.7134 6.31373 60.0895 6 60.5309 6C60.9773 6 61.356 6.32068 61.4646 6.75366C61.7099 7.73116 62.0932 8.73168 62.6146 9.75521C63.2709 11.0191 64.1093 12.2344 65.1302 13.401C66.1753 14.5434 67.3421 15.5764 68.6302 16.5C70.3136 17.6932 72.0248 18.5316 73.7642 19.015C74.1909 19.1335 74.5 19.5134 74.5 19.9562C74.5 20.4057 74.1815 20.7888 73.7481 20.9076C72.6456 21.2099 71.5107 21.6974 70.3438 22.3698C68.934 23.1962 67.6215 24.1805 66.4062 25.3229C65.191 26.441 64.1945 27.6198 63.4166 28.8593C62.4506 30.401 61.7974 31.8643 61.4572 33.2495C61.3516 33.6791 60.9778 34 60.5356 34Z" fill="#1D6D67"/>
</svg>
